<svg width="64" height="64" viewBox="0 0 64 64" fill="none" xmlns="http://www.w3.org/2000/svg">
<g clip-path="url(#clip0_3324_466)">
<path d="M31.4723 28.8122C27.9316 32.2799 24.4112 35.8762 20.9049 39.3849L6.79992 53.503C7.21361 53.6052 9.3407 53.3137 9.84013 53.2415C17.246 52.1709 24.48 48.7417 30.5596 44.4672C30.1874 41.7252 30.0571 38.9558 30.1704 36.191C30.3032 33.6877 30.7404 31.2098 31.4723 28.8122Z" fill="black"/>
<path d="M32.5513 42.921C33.2183 42.8035 38.9298 37.4617 39.8123 36.5798C39.6742 36.0747 39.5767 35.1563 39.6072 34.6277C39.857 30.3091 44.0466 27.6753 47.3177 25.5775C48.5001 24.8125 49.7433 24.0858 50.7931 23.1448C52.4267 21.6804 52.5505 19.5422 51.8524 17.5694C51.3569 16.169 50.5755 15.0125 49.5467 13.9337C48.9227 13.3039 48.5148 12.8448 47.7348 12.4049C47.0584 13.0389 46.3268 13.8046 45.6618 14.4682L41.7271 18.3932L39.2716 20.8377C38.8118 21.2917 38.3404 21.7403 37.8878 22.2008C32.5386 27.6438 31.9594 35.6787 32.5513 42.921ZM44.9347 21.3494C44.1871 20.3876 44.364 19.0012 45.3296 18.2586C45.9937 17.748 46.8565 17.6756 47.5704 17.9955C47.7002 18.0536 47.8254 18.1243 47.9433 18.2081C48.1201 18.3338 48.2808 18.4884 48.4191 18.6701C49.151 19.6327 48.9676 21.0059 48.0089 21.743C47.949 21.7891 47.8875 21.8318 47.8245 21.8707C47.6988 21.9486 47.5676 22.0121 47.433 22.062C46.5575 22.3865 45.5377 22.1251 44.9347 21.3494Z" fill="black"/>
</g>
<defs>
<clipPath id="clip0_3324_466">
<rect width="64" height="64" fill="white"/>
</clipPath>
</defs>
</svg>
