<svg width="64" height="64" viewBox="0 0 64 64" fill="none" xmlns="http://www.w3.org/2000/svg">
<g clip-path="url(#clip0_3324_466)">
<path d="M36.755 28.2629C31.7992 28.2113 26.7669 28.265 21.8065 28.2666L1.84985 28.2759C2.07012 28.6407 3.7803 29.9387 4.18453 30.2407C10.1783 34.7205 17.7183 37.4108 25.0397 38.6873C26.7154 36.4852 28.5816 34.4348 30.6167 32.56C32.4807 30.8836 34.542 29.4407 36.755 28.2629Z" fill="black"/>
<path d="M27.5415 39.0022C28.0962 39.3908 35.912 39.6522 37.1597 39.6526C37.4191 39.1978 37.9997 38.4795 38.395 38.1272C41.6253 35.2501 46.4502 36.3503 50.2466 37.18C51.6237 37.4751 53.0166 37.8403 54.4243 37.9173C56.6149 38.0369 58.2144 36.6126 59.1157 34.7239C59.7555 33.3833 60.0208 32.013 60.0562 30.5227C60.0603 29.6361 60.0965 29.0231 59.856 28.1604C58.9293 28.1305 57.8707 28.1546 56.9312 28.1536L51.3735 28.1468L47.9087 28.139C47.2626 28.1349 46.612 28.1188 45.9663 28.1243C38.3351 28.1907 32.244 33.4627 27.5415 39.0022ZM51.5513 32.5052C51.7027 31.2965 52.8082 30.4413 54.0161 30.5989C54.8467 30.7074 55.508 31.2664 55.7866 31.9974C55.8373 32.1303 55.8758 32.2688 55.8999 32.4114C55.936 32.6253 55.9404 32.8482 55.9097 33.0745C55.7466 34.2728 54.6459 35.114 53.4468 34.9573C53.3718 34.9475 53.2982 34.9342 53.2261 34.9173C53.0821 34.8834 52.9444 34.8356 52.814 34.7757C51.9654 34.3861 51.4292 33.48 51.5513 32.5052Z" fill="black"/>
</g>
<defs>
<clipPath id="clip0_3324_466">
<rect width="64" height="64" fill="white"/>
</clipPath>
</defs>
</svg>
