<svg width="124" height="24" viewBox="0 0 124 24" fill="none" xmlns="http://www.w3.org/2000/svg">
<path d="M74.3544 0.290367C63.7976 0.182966 53.078 0.294712 42.5114 0.298147L0 0.317493C0.469206 1.07689 4.11221 3.77891 4.97329 4.40777C17.7412 13.7334 33.8028 19.334 49.3988 21.9911C52.9683 17.4071 56.9436 13.1387 61.2788 9.23574C65.2494 5.74612 69.6403 2.74233 74.3544 0.290367Z" fill="black"/>
<path d="M54.7278 22.647C55.9095 23.4559 72.5616 23.9988 75.2171 23.9995C75.77 23.0527 77.0068 21.5588 77.8489 20.8257C84.7302 14.8363 95.007 17.127 103.094 18.854C106.028 19.4684 108.995 20.227 111.993 20.3872C116.66 20.6362 120.067 17.6724 121.987 13.7408C123.35 10.9498 123.915 8.09709 123.991 4.99466C123.999 3.14896 124.076 1.87249 123.564 0.0766907C121.59 0.0143138 119.334 0.0642119 117.332 0.0620422L105.495 0.0483704L98.1136 0.0327454C96.7371 0.0242477 95.3514 -0.0090954 93.9759 0.00247192C77.72 0.14061 64.7451 11.1151 54.7278 22.647ZM108.775 13.938C106.845 13.1833 105.602 11.2293 105.872 9.12161C105.983 8.25665 106.334 7.47852 106.852 6.84329C106.946 6.72772 107.046 6.61705 107.151 6.51126C108.041 5.61264 109.296 5.07938 110.645 5.11673C110.804 5.12112 110.963 5.13331 111.124 5.15384C113.698 5.48235 115.507 7.79407 115.158 10.3072C115.016 11.3204 114.546 12.2116 113.866 12.8902C113.761 12.9947 113.651 13.0939 113.536 13.188C112.566 13.9874 111.268 14.4004 109.911 14.2271C109.672 14.1965 109.439 14.149 109.214 14.0855C109.064 14.0432 108.918 13.9939 108.775 13.938Z" fill="black"/>
</svg>
